<?xml version="1.0" standalone="no"?>
<!DOCTYPE svg PUBLIC "-//W3C//DTD SVG 20010904//EN"
 "http://www.w3.org/TR/2001/REC-SVG-20010904/DTD/svg10.dtd">
<svg version="1.0" xmlns="http://www.w3.org/2000/svg"
 width="2362.000000pt" height="2362.000000pt" viewBox="0 0 2362.000000 2362.000000"
 preserveAspectRatio="xMidYMid meet">

<g transform="translate(0.000000,2362.000000) scale(0.100000,-0.100000)"
fill="#324997" stroke="none">
<path d="M0 11810 l0 -11810 11810 0 11810 0 -3 7538 c-3 8315 3 7563 -62
8107 -131 1103 -427 2199 -852 3160 -569 1287 -1380 2350 -2391 3134 -919 712
-2023 1205 -3270 1461 -483 99 -888 152 -1547 202 -122 9 -1974 13 -7827 15
l-7668 3 0 -11810z m15965 2833 c-3 -137 -17 -954 -31 -1818 l-24 -1570 25
-719 c14 -396 25 -730 25 -743 l0 -23 -485 0 -485 0 0 33 c0 17 11 334 25 704
l25 671 -20 1589 c-11 873 -20 1692 -20 1818 l0 230 473 36 c259 20 478 37
485 38 11 1 12 -45 7 -246z m-9714 -133 c242 -24 508 -82 729 -159 171 -59
189 -68 184 -88 -2 -10 -38 -200 -80 -423 -42 -223 -77 -408 -79 -411 -2 -3
-36 -18 -74 -33 l-71 -28 -87 59 c-204 135 -496 258 -708 299 -126 25 -306 23
-406 -4 -225 -60 -383 -209 -425 -401 -33 -146 10 -275 131 -396 119 -119 239
-190 675 -397 307 -146 470 -232 610 -323 326 -212 518 -454 597 -753 35 -133
43 -364 18 -514 -95 -568 -533 -1003 -1174 -1164 -200 -51 -343 -67 -581 -67
-287 1 -520 31 -815 104 -239 60 -557 174 -563 202 -2 8 26 210 62 448 37 239
66 439 66 446 0 6 25 26 55 43 49 28 58 30 74 18 10 -7 66 -50 126 -95 241
-182 544 -321 840 -385 148 -33 407 -32 520 0 182 53 314 156 382 297 32 68
37 88 41 175 4 82 1 108 -18 164 -66 198 -252 337 -779 581 -502 231 -716 362
-907 550 -224 222 -327 451 -341 761 -22 467 193 897 588 1176 238 168 534
276 874 317 101 12 416 13 536 1z m12259 -1306 c179 -22 497 -108 569 -153 12
-8 2 -70 -64 -388 -43 -208 -80 -382 -82 -388 -2 -5 -21 -17 -43 -27 l-39 -16
-73 38 c-379 197 -733 216 -971 54 -219 -150 -333 -475 -314 -899 25 -540 218
-857 575 -941 101 -24 352 -14 492 19 109 26 272 80 364 121 l53 24 37 -32 36
-31 -47 -375 -48 -375 -80 -23 c-133 -39 -343 -79 -504 -97 -206 -23 -521 -17
-662 14 -278 60 -480 164 -665 343 -240 232 -387 551 -451 977 -25 165 -25
590 0 751 64 421 204 731 439 975 266 277 593 416 1053 449 84 6 293 -4 425
-20z m-5120 -10 c269 -46 493 -156 661 -323 164 -163 275 -390 325 -666 15
-80 19 -148 18 -335 0 -129 -5 -271 -11 -315 l-12 -80 -69 -67 -70 -68 -959 0
c-528 0 -962 -2 -964 -5 -8 -8 11 -164 31 -256 78 -360 295 -578 635 -639 304
-54 738 21 1096 191 l107 51 41 -23 c23 -12 41 -30 41 -38 -1 -25 -127 -701
-132 -706 -10 -10 -216 -84 -303 -110 -247 -72 -474 -105 -720 -105 -839 0
-1410 396 -1620 1124 -64 224 -93 519 -75 781 22 325 80 550 206 795 81 157
165 270 291 390 256 246 588 386 1003 424 92 8 388 -4 480 -20z m-3433 -5
c520 -71 884 -413 1028 -965 60 -231 70 -322 70 -669 0 -345 -9 -433 -68 -665
-171 -670 -638 -1084 -1325 -1175 -194 -26 -609 -14 -749 21 l-26 7 7 -464 c3
-255 9 -553 12 -661 l7 -198 -483 0 -483 0 6 233 c4 127 14 759 23 1402 17
1162 17 1176 -4 2100 -12 511 -18 932 -14 936 7 6 838 80 896 79 l29 0 -7
-245 -7 -245 27 0 c18 0 45 17 88 57 185 172 394 310 626 415 97 44 111 47
187 48 45 0 117 -5 160 -11z m760 -4900 c75 -24 133 -65 173 -121 65 -89 70
-158 45 -578 -21 -353 -20 -421 7 -455 20 -26 24 -27 102 -24 l81 4 -3 -60
c-4 -81 -17 -98 -100 -125 -83 -26 -130 -22 -191 18 -46 30 -91 106 -91 154 0
15 -5 28 -11 28 -6 0 -36 -23 -67 -51 -61 -56 -145 -115 -209 -148 -51 -25
-124 -28 -206 -6 -176 46 -269 162 -271 340 -1 107 17 165 70 224 61 68 121
91 418 160 143 34 261 63 263 64 1 2 3 62 4 133 1 100 -3 139 -15 169 -78 187
-349 174 -593 -28 -33 -27 -49 -35 -58 -27 -7 6 -18 47 -25 92 -13 80 -13 81
11 99 94 70 259 141 370 158 89 14 222 5 296 -20z m3363 5 c58 -13 170 -52
170 -59 0 -26 -43 -201 -51 -206 -6 -3 -41 9 -77 28 -187 95 -372 84 -485 -29
-91 -91 -131 -217 -131 -413 0 -447 263 -628 656 -453 47 21 72 28 79 21 7 -7
6 -41 -3 -104 -15 -107 -12 -104 -136 -141 -85 -25 -301 -36 -385 -18 -194 40
-346 199 -409 429 -18 64 -22 104 -22 256 0 168 2 186 28 270 51 167 137 288
254 359 137 82 320 104 512 60z m1062 5 c91 -19 177 -67 243 -134 34 -33 67
-75 74 -93 17 -40 24 -40 50 1 33 54 133 143 197 175 90 45 167 62 287 62 313
0 477 -179 477 -521 0 -98 -2 -110 -22 -134 l-23 -26 -427 -6 -428 -6 0 -56
c0 -31 7 -87 15 -124 47 -221 183 -338 398 -340 109 -1 207 25 323 83 55 29
96 44 100 38 6 -10 -3 -144 -13 -185 -6 -27 -114 -76 -226 -103 -102 -25 -277
-27 -362 -5 -120 32 -234 112 -300 211 l-38 57 -20 -39 c-29 -57 -134 -155
-199 -186 -90 -44 -160 -58 -290 -58 -96 0 -131 4 -193 24 -181 58 -298 191
-356 406 -20 74 -23 108 -23 260 1 200 16 278 81 410 67 138 204 249 351 284
70 17 252 20 324 5z m-3497 -351 c-13 -700 -14 -654 20 -723 26 -52 37 -64 84
-87 68 -35 145 -37 234 -7 73 24 112 47 189 108 l58 46 0 496 0 496 63 7 c34
3 86 9 115 12 l52 6 0 -83 c0 -46 -5 -297 -10 -558 -8 -397 -7 -479 5 -507 17
-41 44 -49 130 -40 35 3 66 3 68 -1 3 -5 0 -39 -5 -77 l-11 -68 -52 -24 c-28
-13 -72 -27 -97 -30 -97 -13 -203 69 -222 171 -8 40 -24 44 -52 14 -35 -39
-179 -128 -259 -160 -73 -29 -86 -31 -155 -25 -95 8 -189 39 -243 80 -48 36
-101 110 -118 164 -9 26 -14 201 -19 577 -3 297 -6 541 -5 542 1 2 169 20 209
22 l28 1 -7 -352z m5361 120 c-4 -128 -8 -359 -9 -513 -2 -267 -1 -282 19
-326 59 -126 219 -155 389 -70 44 22 104 61 133 86 l52 47 0 493 0 493 53 5
c28 4 81 9 116 13 l63 6 -6 -203 c-3 -112 -7 -371 -9 -575 -2 -446 -10 -420
115 -411 44 3 81 1 84 -4 3 -5 2 -39 -2 -75 l-7 -66 -53 -24 c-102 -45 -169
-41 -243 14 -33 24 -81 110 -81 145 0 27 -15 21 -92 -40 -88 -68 -239 -142
-306 -150 -146 -17 -318 58 -388 168 -49 79 -52 107 -58 671 l-5 527 62 5 c34
3 76 8 92 9 17 2 43 5 59 6 l28 1 -6 -232z m1504 92 c0 -77 4 -140 9 -140 4 0
25 26 46 57 101 153 269 246 394 218 l31 -7 0 -113 c0 -81 -4 -114 -12 -118
-7 -2 -40 0 -73 6 -49 8 -71 7 -120 -7 -50 -15 -69 -28 -125 -85 -41 -42 -81
-96 -108 -149 l-43 -82 0 -252 c0 -139 3 -322 7 -405 l7 -153 -122 0 -122 0 8
38 c4 20 7 324 7 674 l-1 637 66 6 c36 3 75 7 86 9 70 11 65 21 65 -134z
m-7396 -3032 c-7 -1013 -9 -984 54 -1002 21 -6 49 -5 79 1 70 16 76 11 68 -61
-4 -33 -11 -68 -16 -77 -12 -23 -113 -59 -167 -59 -91 0 -182 72 -198 157 -4
19 -13 37 -20 40 -8 3 -35 -13 -61 -34 -126 -104 -241 -163 -315 -163 -149 1
-302 64 -394 163 -116 124 -163 259 -171 487 -4 121 -2 161 16 245 50 242 184
402 396 472 72 24 95 26 235 27 85 1 181 -3 213 -7 l57 -8 0 354 0 355 98 7
c84 5 118 9 130 14 1 0 0 -410 -4 -911z m2505 232 c-6 -366 -7 -835 -3 -1042
l7 -378 -117 0 -117 0 6 258 c4 141 8 262 10 268 2 6 -1 356 -6 779 -4 423 -7
770 -6 771 6 6 223 19 229 14 3 -3 2 -304 -3 -670z m4516 544 c58 -27 81 -107
51 -178 -56 -134 -256 -95 -256 51 0 112 103 176 205 127z m-3918 -137 c26
-37 28 -48 28 -136 0 -89 -3 -102 -33 -164 -34 -68 -144 -214 -168 -224 -14
-5 -70 29 -91 55 -9 11 -4 23 26 62 86 109 110 211 69 290 -15 29 -36 52 -60
65 -21 11 -38 25 -38 31 0 12 33 40 104 88 l39 26 48 -26 c26 -15 61 -45 76
-67z m3061 -309 l3 -148 199 0 c148 0 201 -3 207 -12 7 -13 7 -44 -3 -110 l-6
-38 -198 0 -198 0 -6 -157 c-3 -87 -7 -291 -9 -453 -2 -281 -1 -297 19 -334
43 -83 169 -103 313 -51 48 17 77 23 83 17 10 -10 -7 -152 -20 -163 -15 -13
-139 -57 -193 -69 -82 -18 -156 -9 -232 28 -79 39 -127 90 -158 168 l-23 59 3
478 3 477 -101 0 -101 0 0 28 c0 15 3 51 6 80 l7 52 88 0 89 0 0 108 0 109 93
41 c138 61 131 66 135 -110z m-5036 -139 c170 -36 292 -157 333 -330 9 -38 15
-113 15 -186 0 -178 44 -163 -468 -163 l-415 0 6 -97 c11 -197 92 -336 229
-398 130 -58 295 -43 476 46 63 31 108 47 114 41 8 -8 -7 -186 -18 -203 -6
-10 -154 -67 -219 -84 -155 -42 -350 -27 -482 36 -233 111 -362 405 -325 742
30 279 165 478 377 560 115 44 268 59 377 36z m2912 -5 c161 -41 254 -152 264
-314 2 -41 -3 -200 -12 -353 -9 -153 -16 -323 -16 -378 0 -93 2 -102 25 -124
26 -27 66 -32 123 -16 54 16 65 6 58 -53 -12 -85 -15 -92 -64 -115 -91 -45
-188 -38 -254 17 -32 27 -67 93 -68 127 0 11 -4 27 -10 35 -7 11 -20 3 -68
-42 -69 -66 -199 -153 -251 -169 -28 -8 -57 -8 -112 0 -216 33 -341 182 -326
390 8 128 56 200 169 257 28 14 162 51 316 88 l267 62 3 133 c2 122 1 137 -21
185 -38 83 -100 116 -219 116 -113 0 -229 -49 -359 -152 -28 -22 -56 -37 -64
-35 -7 3 -18 36 -25 79 -6 40 -13 78 -15 85 -10 30 228 152 349 178 85 19 235
18 310 -1z m1411 1 c93 -20 195 -56 195 -69 -2 -34 -39 -189 -48 -198 -8 -8
-28 -2 -69 19 -98 51 -159 67 -258 67 -107 0 -166 -21 -233 -87 -93 -89 -135
-221 -135 -417 0 -252 77 -416 232 -489 49 -23 68 -26 156 -26 108 1 192 22
288 73 66 35 71 27 55 -94 l-13 -99 -60 -22 c-103 -37 -236 -56 -344 -50 -154
9 -262 56 -361 156 -67 68 -110 147 -146 266 -25 82 -27 105 -28 260 -1 205
14 283 81 417 77 154 200 254 359 292 78 19 242 19 329 1z m2730 0 c203 -52
335 -192 397 -420 31 -116 31 -393 0 -510 -68 -251 -217 -404 -442 -451 -90
-19 -268 -14 -343 10 -185 59 -311 199 -369 413 -18 66 -21 106 -21 253 0 148
3 187 22 255 27 103 77 206 130 272 68 84 196 159 316 183 70 14 247 11 310
-5z m1554 -6 c119 -26 221 -111 261 -217 21 -55 22 -72 25 -605 l4 -548 -116
3 -115 3 1 215 c0 118 4 337 7 485 6 236 5 277 -10 328 -62 214 -333 209 -578
-11 l-51 -47 7 -487 7 -488 -113 0 -113 0 0 679 0 678 80 7 c44 3 95 6 114 6
l33 0 -7 -95 c-5 -76 -4 -95 7 -95 7 1 42 23 78 50 72 55 173 112 253 140 54
20 130 20 226 -1z m-2674 -211 c-9 -287 -11 -655 -6 -928 l5 -225 -119 -3
-118 -3 7 148 c6 117 7 909 2 1158 l-1 50 60 6 c33 3 86 6 118 7 l58 2 -6
-212z"/>
<path d="M12885 12564 c-252 -56 -441 -258 -529 -569 -29 -100 -32 -125 -13
-125 6 1 279 9 605 19 326 10 596 22 600 26 14 14 6 229 -11 295 -46 175 -143
288 -292 341 -81 28 -261 35 -360 13z"/>
<path d="M9365 12405 c-33 -7 -89 -24 -124 -39 -78 -31 -236 -136 -314 -208
l-58 -53 0 -635 c0 -349 4 -724 7 -832 l7 -198 56 -21 c172 -65 391 -97 543
-78 174 21 295 76 403 184 130 131 202 295 247 565 20 116 16 530 -5 655 -26
150 -53 240 -104 345 -37 77 -60 109 -122 171 -83 82 -147 119 -253 144 -76
18 -202 18 -283 0z"/>
<path d="M10500 7506 c-238 -58 -263 -68 -294 -109 -31 -41 -28 -138 5 -197
49 -90 173 -121 284 -71 64 28 144 89 188 143 34 42 35 45 42 166 4 67 3 122
-1 121 -5 0 -106 -24 -224 -53z"/>
<path d="M14873 8132 c-117 -42 -193 -127 -229 -259 -27 -95 -27 -397 0 -492
35 -127 105 -229 187 -271 57 -30 154 -43 226 -31 127 20 213 81 262 185 47
100 56 155 55 331 -1 170 -18 266 -65 362 -32 67 -102 137 -161 163 -73 32
-203 38 -275 12z"/>
<path d="M15870 8134 c-137 -37 -232 -140 -273 -298 l-15 -57 181 6 c494 15
487 15 493 39 9 38 -14 144 -43 198 -58 107 -195 152 -343 112z"/>
<path d="M10502 5155 c-157 -35 -259 -150 -298 -337 -20 -90 -13 -293 11 -382
36 -129 104 -224 200 -274 44 -23 62 -27 145 -27 82 0 103 4 151 26 31 15 85
54 120 87 l64 60 4 243 c1 134 0 312 -4 396 l-7 151 -92 30 c-113 38 -209 46
-294 27z"/>
<path d="M11983 5146 c-117 -37 -202 -136 -247 -285 -9 -30 -14 -56 -11 -59 2
-3 150 -1 327 4 l323 9 0 70 c0 88 -24 151 -76 204 -22 22 -60 46 -86 55 -56
19 -171 20 -230 2z"/>
<path d="M14962 4519 c-111 -27 -218 -55 -237 -63 -42 -18 -66 -54 -72 -109
-16 -136 86 -237 225 -225 81 8 152 47 239 132 l73 72 0 69 c0 39 3 94 6 123
6 47 5 52 -12 51 -10 0 -110 -23 -222 -50z"/>
<path d="M19030 5156 c-200 -44 -292 -204 -292 -506 1 -284 72 -454 220 -527
52 -25 67 -28 162 -28 128 1 186 22 254 95 92 98 120 193 120 405 1 341 -100
525 -309 564 -70 13 -84 13 -155 -3z"/>
</g>
</svg>
